<svg xmlns="http://www.w3.org/2000/svg" width="240" height="400" viewBox="0 0 240 400">
  <path d="M80 20 H160 V250 
           C160 310 130 350 90 350 
           C55 350 40 330 40 310 
           L40 300 H80 
           C80 315 90 325 105 325 
           C125 325 130 300 130 260 
           V60 H80 Z"
        fill="#000000" stroke="#000000" stroke-width="4"/>

  <polygon points="80,20 160,20 160,80 110,80" fill="#ffb347"/>
  <polygon points="80,20 110,80 80,80" fill="#ffcc33"/>

  <polygon points="80,80 160,80 160,150 120,150" fill="#ff6f61"/>
  <polygon points="80,80 120,150 80,150" fill="#ff8c42"/>

  <polygon points="80,150 160,150 160,230 120,230" fill="#d65db1"/>
  <polygon points="80,150 120,230 80,230" fill="#f07de6"/>

  <polygon points="160,230 160,250 120,250 120,230" fill="#6a5acd"/>
  <polygon points="120,230 120,250 95,260 80,230" fill="#836fff"/>

  <polygon points="120,250 120,300 105,325 95,260" fill="#42a5f5"/>
  <polygon points="95,260 105,325 60,310 70,270" fill="#4fc3f7"/>
</svg>